# xmcd
#
# Track frame offsets: 
#        150
#        26195
#        54925
#        78187
#        106752
#        138047
#        162552
#        178610
#
# Disc length: 2763 seconds
#
# Revision: 22
# Processed by: cddbd v1.5.2PL0 Copyright (c) Steve Scherf et al.
# Submitted via: ExactAudioCopy v1.1
#
DISCID=5a0ac908
DTITLE=Mayhem - De Mysteriis Dom Sathanas
DYEAR=1994
DGENRE=Black Metal
TTITLE0=Funeral Fog
TTITLE1=Freezing Moon
TTITLE2=Cursed In Eternity
TTITLE3=Pagan Fears
TTITLE4=Life Eternal
TTITLE5=From The Dark Past
TTITLE6=Buried By Time And Dust
TTITLE7=De Mysteriis Dom Sathanas
EXTD=
EXTT0=
EXTT1=
EXTT2=
EXTT3=
EXTT4=
EXTT5=
EXTT6=
EXTT7=
PLAYORDER=
